<?xml version="1.0" encoding="UTF-8" standalone="no"?>
<!-- Created with Inkscape (http://www.inkscape.org/) -->

<svg
   xmlns:dc="http://purl.org/dc/elements/1.1/"
   xmlns:cc="http://creativecommons.org/ns#"
   xmlns:rdf="http://www.w3.org/1999/02/22-rdf-syntax-ns#"
   xmlns:svg="http://www.w3.org/2000/svg"
   xmlns="http://www.w3.org/2000/svg"
   xmlns:sodipodi="http://sodipodi.sourceforge.net/DTD/sodipodi-0.dtd"
   xmlns:inkscape="http://www.inkscape.org/namespaces/inkscape"
   width="744.09448819"
   height="1052.3622047"
   id="svg6910"
   version="1.1"
   inkscape:version="0.48.3.1 r9886"
   sodipodi:docname="New document 2">
  <defs
     id="defs6912">
    <clipPath
       clipPathUnits="userSpaceOnUse"
       id="clipPath1164">
      <path
         inkscape:connector-curvature="0"
         d="m 0,396.85 552.76,0 L 552.76,0 0,0 0,396.85 z"
         id="path1166" />
    </clipPath>
  </defs>
  <sodipodi:namedview
     id="base"
     pagecolor="#ffffff"
     bordercolor="#666666"
     borderopacity="1.0"
     inkscape:pageopacity="0.0"
     inkscape:pageshadow="2"
     inkscape:zoom="0.35"
     inkscape:cx="375"
     inkscape:cy="520"
     inkscape:document-units="px"
     inkscape:current-layer="layer1"
     showgrid="false"
     inkscape:window-width="1280"
     inkscape:window-height="945"
     inkscape:window-x="0"
     inkscape:window-y="27"
     inkscape:window-maximized="1" />
  <metadata
     id="metadata6915">
    <rdf:RDF>
      <cc:Work
         rdf:about="">
        <dc:format>image/svg+xml</dc:format>
        <dc:type
           rdf:resource="http://purl.org/dc/dcmitype/StillImage" />
        <dc:title></dc:title>
      </cc:Work>
    </rdf:RDF>
  </metadata>
  <g
     inkscape:label="Layer 1"
     inkscape:groupmode="layer"
     id="layer1">
    <g
       id="g7068"
       transform="matrix(0.97615511,0,0,0.97615511,-1968.6714,-1516.0873)">
      <g
         id="g1160"
         transform="matrix(2.717629,0,0,-2.717629,1319.1727,2592.7493)">
        <g
           clip-path="url(#clipPath1164)"
           id="g1162">
          <g
             transform="translate(477.9629,350.7412)"
             id="g1168">
            <path
               id="path1170"
               style="fill:#fbc108;fill-opacity:1;fill-rule:nonzero;stroke:none"
               d="M 0,0 C 0.629,-8.546 15.178,-5.43 15.764,-14.629 16.324,-23.455 0.555,-20.048 0,-29.258 -0.488,-37.376 15.201,-35.057 15.764,-43.887 16.324,-52.713 0.555,-49.306 0,-58.516 c 0.02,0.305 2.977,0.454 2.996,0.803 0.57,9.477 15.176,5.478 15.764,14.629 0.584,9.123 -15.145,6.2 -15.764,14.629 -0.683,9.314 15.188,5.65 15.764,14.628 C 19.344,-4.703 3.615,-7.626 2.996,0.803 3.01,0.633 -0.016,0.216 0,0"
               inkscape:connector-curvature="0" />
          </g>
          <g
             transform="translate(493.7266,350.7412)"
             id="g1172">
            <path
               id="path1174"
               style="fill:#e47c32;fill-opacity:1;fill-rule:nonzero;stroke:none"
               d="m 0,0 c -0.627,-8.546 -15.176,-5.431 -15.762,-14.629 -0.562,-8.833 15.209,-5.429 15.762,-14.629 0.488,-8.117 -15.199,-5.8 -15.762,-14.629 -0.562,-8.833 15.209,-5.429 15.762,-14.629 -0.012,0.184 3.01,0.574 2.996,0.803 -0.57,9.483 -15.176,5.483 -15.762,14.629 -0.586,9.123 15.143,6.2 15.762,14.629 0.684,9.314 -15.187,5.664 -15.762,14.628 -0.586,9.124 15.143,6.201 15.762,14.63 C 2.973,0.486 0.025,0.361 0,0"
               inkscape:connector-curvature="0" />
          </g>
          <g
             transform="translate(486.0488,328.8408)"
             id="g1176">
            <path
               id="path1178"
               style="fill:#fbc108;fill-opacity:1;fill-rule:nonzero;stroke:none"
               d="M 0,0 C 0,0 1.914,0.681 2.791,0.984 L 2.477,1.106 c 0,0 -2.245,-0.837 -2.694,-1.033 C -0.666,-0.122 0,0 0,0"
               inkscape:connector-curvature="0" />
          </g>
          <g
             transform="translate(486.1367,299.5352)"
             id="g1180">
            <path
               id="path1182"
               style="fill:#fbc108;fill-opacity:1;fill-rule:nonzero;stroke:none"
               d="M 0,0 C 0,0 0.176,0.032 2.807,0.952 L 2.389,1.106 c 0,0 -2.229,-0.789 -2.711,-0.96 C -0.783,-0.018 0,0 0,0"
               inkscape:connector-curvature="0" />
          </g>
          <g
             transform="translate(431.3477,332.6528)"
             id="g1184">
            <path
               id="path1186"
               style="fill:#3871c1;fill-opacity:1;fill-rule:nonzero;stroke:none"
               d="M 0,0 5.484,-14.082 11.217,1.023 16.701,-14.082 22.527,0 25.98,0 16.564,-22.405 11.146,-7.477 5.498,-22.418 -3.453,0 0,0 z"
               inkscape:connector-curvature="0" />
          </g>
          <g
             transform="translate(465.8027,329.6646)"
             id="g1188">
            <path
               id="path1190"
               style="fill:#3871c1;fill-opacity:1;fill-rule:nonzero;stroke:none"
               d="m 0,0 0,-18.079 -3.18,0 0,18.079 -4.843,0 0,2.988 12.853,0 L 4.83,0 0,0 z"
               inkscape:connector-curvature="0" />
          </g>
          <g
             transform="translate(486.7676,331.5273)"
             id="g1192">
            <path
               id="path1194"
               style="fill:#3871c1;fill-opacity:1;fill-rule:nonzero;stroke:none"
               d="m 0,0 0,-3.759 c -1.838,1.537 -3.74,2.306 -5.705,2.306 -2.164,0 -3.988,-0.778 -5.471,-2.334 -1.492,-1.546 -2.238,-3.438 -2.238,-5.676 0,-2.21 0.746,-4.075 2.238,-5.594 1.492,-1.52 3.321,-2.279 5.485,-2.279 1.119,0 2.07,0.182 2.851,0.545 0.438,0.183 0.891,0.428 1.358,0.738 0.468,0.309 0.962,0.682 1.482,1.118 l 0,-3.84 c -1.82,-1.033 -3.73,-1.549 -5.73,-1.549 -3.012,0 -5.583,1.051 -7.711,3.152 -2.12,2.119 -3.18,4.675 -3.18,7.668 0,2.684 0.889,5.076 2.662,7.177 2.184,2.575 5.008,3.862 8.473,3.862 C -3.594,1.535 -1.766,1.023 0,0"
               inkscape:connector-curvature="0" />
          </g>
          <g
             transform="translate(493.2734,333.0625)"
             id="g1196">
            <path
               id="path1198"
               style="fill:#3871c1;fill-opacity:1;fill-rule:nonzero;stroke:none"
               d="m 0,0 c 3.467,0 6.291,-1.288 8.475,-3.862 1.773,-2.101 2.66,-4.493 2.66,-7.177 0,-2.993 -1.059,-5.549 -3.18,-7.668 -2.127,-2.102 -4.697,-3.152 -7.709,-3.152 -2,0 -3.91,0.516 -5.73,1.548 l 0,3.841 c 0.519,-0.436 1.011,-0.809 1.48,-1.118 0.469,-0.31 0.922,-0.556 1.358,-0.738 0.783,-0.363 1.732,-0.545 2.851,-0.545 2.166,0 3.994,0.759 5.486,2.279 1.493,1.519 2.239,3.384 2.239,5.594 0,2.238 -0.746,4.13 -2.239,5.676 -1.482,1.556 -3.306,2.334 -5.472,2.334 -1.965,0 -3.865,-0.769 -5.703,-2.306 l 0,3.759 C -3.719,-0.512 -1.891,0 0,0"
               inkscape:connector-curvature="0" />
          </g>
          <g
             transform="translate(508.832,314.5737)"
             id="g1200">
            <path
               id="path1202"
               style="fill:#3871c1;fill-opacity:1;fill-rule:nonzero;stroke:none"
               d="M 0,0 1.963,0 C 3.402,0 4.457,0.282 5.131,0.846 5.84,1.455 6.193,2.228 6.193,3.165 6.193,4.075 5.854,4.839 5.17,5.458 4.508,6.067 3.32,6.372 1.609,6.372 L 0,6.372 0,0 z m 0,9.033 0.996,0 c 1.182,0 2.049,0.261 2.598,0.784 0.551,0.523 0.826,1.294 0.826,2.313 0,0.992 -0.281,1.744 -0.846,2.258 -0.564,0.514 -1.383,0.771 -2.457,0.771 L 0,15.159 0,9.033 z m -3.18,-12.021 0,21.067 3.166,0 c 1.41,0 2.534,-0.109 3.369,-0.327 C 4.201,17.533 4.916,17.165 5.498,16.646 6.09,16.11 6.559,15.441 6.902,14.641 7.258,13.831 7.436,13.012 7.436,12.185 7.436,10.674 6.857,9.396 5.703,8.351 6.822,7.968 7.703,7.3 8.35,6.345 9.006,5.398 9.332,4.298 9.332,3.042 9.332,1.396 8.75,0.004 7.586,-1.133 6.887,-1.833 6.098,-2.32 5.225,-2.593 4.27,-2.856 3.074,-2.988 1.637,-2.988 l -4.817,0 z"
               inkscape:connector-curvature="0" />
          </g>
        </g>
      </g>
      <text
         id="text1204"
         x="2127.7666"
         y="1717.9861"
         style="font-size:32.61154938px">
        <tspan
           id="tspan1206"
           sodipodi:role="line"
           y="1717.9861"
           x="2127.7666 2163.0835 2184.8474 2195.0991 2205.3511 2224.5515 2248.4001 2284.6294 2306.3931 2313.8213 2333.4561 2347.6611 2371.5967 2388.7993"
           style="font-size:43.44021606px;font-variant:normal;font-weight:normal;font-stretch:normal;writing-mode:lr-tb;fill:#316aa7;fill-opacity:1;fill-rule:nonzero;stroke:none;font-family:Myriad Pro;-inkscape-font-specification:AvantGarde-Book">Wellcome Trust</tspan>
        <tspan
           id="tspan1208"
           sodipodi:role="line"
           y="1758.8629"
           x="2064.7354 2089.4526 2111.2163 2135.1514 2149.5305 2163.3008 2185.0647 2194.2739 2206.3936 2230.2424 2244.4473 2253.6565 2278.3743 2300.1375 2310.3899 2320.6411 2329.8503 2353.3953 2363.5601 2387.4089 2397.6606 2421.5095 2445.7925"
           style="font-size:43.44021606px;font-variant:normal;font-weight:normal;font-stretch:normal;writing-mode:lr-tb;fill:#211d1d;fill-opacity:1;fill-rule:nonzero;stroke:none;font-family:Myriad Pro;-inkscape-font-specification:AvantGarde-Book">Centre for Cell Biology</tspan>
      </text>
    </g>
  </g>
</svg>
